<svg xmlns="http://www.w3.org/2000/svg" version="1.1" xmlns:xlink="http://www.w3.org/1999/xlink" xmlns:svgjs="http://svgjs.dev/svgjs" width="2000" height="1500" viewBox="0 0 2000 1500"><rect width="2000" height="1500" fill="#1d3965"></rect><g transform="matrix(0.75,0,0,0.75,249.090909090909,282.7536437246963)"><svg viewBox="0 0 396 247" data-background-color="#1d3965" preserveAspectRatio="xMidYMid meet" height="1247" width="2000" xmlns="http://www.w3.org/2000/svg" xmlns:xlink="http://www.w3.org/1999/xlink"><g id="tight-bounds" transform="matrix(1,0,0,1,0.2400000000000091,-0.09999999999999432)"><svg viewBox="0 0 395.52 247.2" height="247.2" width="395.52"><g><svg></svg></g><g><svg viewBox="0 0 395.52 247.2" height="247.2" width="395.52"><mask id="80442faf-278e-4fba-a50e-81c7341bd826"><rect width="395.52" height="247.2" fill="white"></rect><g transform="matrix(1,0,0,1,0,88.91820895522388)" id="clone"><svg viewBox="0 0 395.52 69.36358208955224" height="69.36358208955224" width="395.52"><g><svg viewBox="0 0 395.52 69.36358208955224" height="69.36358208955224" width="395.52"><g><svg viewBox="0 0 395.52 69.36358208955224" height="69.36358208955224" width="395.52"><g><svg viewBox="0 0 395.52 69.36358208955224" height="69.36358208955224" width="395.52"><g id="SvgjsG2188"><svg viewBox="0 0 395.52 69.36358208955224" height="69.36358208955224" width="395.52" id="SvgjsSvg2187"><g><svg viewBox="0 0 395.52 69.36358208955224" height="69.36358208955224" width="395.52"><g transform="matrix(1,0,0,1,0,0)"><svg width="395.52" viewBox="-1.05 -39.8 242.18 43.3" height="69.36358208955224" data-palette-color="#ffffff"><path d="M27.1-34.45L27-35 39.4-35 39.3-34.45Q37.6-34.45 36.52-34.13 35.45-33.8 34.88-32.75 34.3-31.7 34.08-29.55 33.85-27.4 33.85-23.75L33.85-23.75 33.85 0.25 32.3 0.25 8.75-29.5 8.75-11.4Q8.75-7.75 8.97-5.58 9.2-3.4 9.78-2.33 10.35-1.25 11.4-0.93 12.45-0.6 14.15-0.6L14.15-0.6 14.25 0 1.95 0 2.05-0.6Q3.75-0.6 4.83-0.93 5.9-1.25 6.48-2.33 7.05-3.4 7.28-5.58 7.5-7.75 7.5-11.4L7.5-11.4 7.5-23.75Q7.5-27.4 7.28-29.55 7.05-31.7 6.48-32.75 5.9-33.8 4.83-34.13 3.75-34.45 2.05-34.45L2.05-34.45 1.95-35 8.75-35 32.6-5.25 32.6-23.75Q32.6-27.4 32.38-29.55 32.15-31.7 31.55-32.75 30.95-33.8 29.88-34.13 28.8-34.45 27.1-34.45L27.1-34.45ZM62.3-12.65L62.3-12.65 45.9-12.65 45.9-11.8Q45.9-8.05 47-5.65 48.1-3.25 49.9-2.1 51.7-0.95 53.75-0.95L53.75-0.95Q55.85-0.95 57.82-1.88 59.8-2.8 60.95-4.95L60.95-4.95 61.7-4.55Q60.3-1.8 57.97-0.65 55.65 0.5 53 0.5L53 0.5Q50.2 0.5 47.7-0.88 45.2-2.25 43.65-5 42.1-7.75 42.1-11.8L42.1-11.8Q42.1-15.2 43.35-18 44.6-20.8 46.92-22.48 49.25-24.15 52.55-24.15L52.55-24.15Q55.8-24.15 57.95-22.6 60.1-21.05 61.2-18.45 62.3-15.85 62.3-12.65ZM52.6-23.15L52.6-23.15Q49.55-23.15 47.95-20.55 46.35-17.95 46-14.1L46-14.1 58.45-14.1Q58.3-18.2 56.95-20.68 55.6-23.15 52.6-23.15ZM95.5-23.05L95.5-23.05 95.4-23.65 104.8-23.65 104.7-23.05Q103.65-23.05 103-22.8 102.35-22.55 101.8-21.65 101.25-20.75 100.55-18.82 99.85-16.9 98.75-13.55L98.75-13.55 94.25 0.15 91.3 0.15 84.75-17.9 79.25 0.15 76.3 0.15 69.8-16.45Q68.6-19.5 67.6-20.9 66.6-22.3 65.65-22.68 64.7-23.05 63.65-23.05L63.65-23.05 63.55-23.65 75.95-23.65 75.85-23.05Q74.05-23.05 73.4-22.48 72.75-21.9 72.75-20.8L72.75-20.8Q72.75-19.45 73.4-17.35 74.05-15.25 75.1-12.6L75.1-12.6 78.95-2.9 84.1-19.75Q83.9-20.4 83.42-21.15 82.95-21.9 82.12-22.48 81.3-23.05 80-23.05L80-23.05 79.9-23.65 91.45-23.65 91.35-23.05Q89.55-23.05 88.9-22.48 88.25-21.9 88.25-20.8L88.25-20.8Q88.25-19.45 88.95-17.35 89.65-15.25 90.6-12.6L90.6-12.6 93.95-2.9 97.85-14.9Q98.55-17 98.77-18.28 99-19.55 99-20.35L99-20.35Q99-21.55 98.25-22.3 97.5-23.05 95.5-23.05ZM114.29-0.95L114.29-0.95Q116.74-0.95 118.24-2.05 119.74-3.15 119.74-5.1L119.74-5.1Q119.74-6.75 118.84-7.75 117.94-8.75 116.54-9.45 115.14-10.15 113.57-10.8 111.99-11.45 110.59-12.28 109.19-13.1 108.29-14.43 107.39-15.75 107.39-17.8L107.39-17.8Q107.39-19.85 108.52-21.28 109.64-22.7 111.42-23.43 113.19-24.15 115.09-24.15L115.09-24.15Q116.89-24.15 118.87-23.75 120.84-23.35 121.89-22.75L121.89-22.75Q121.89-21.15 121.69-19.4 121.49-17.65 121.29-16.35L121.29-16.35 120.69-16.5Q120.69-18.85 119.94-20.23 119.19-21.6 117.97-22.2 116.74-22.8 115.34-22.8L115.34-22.8Q113.59-22.8 112.24-21.75 110.89-20.7 110.89-18.5L110.89-18.5Q110.89-17 111.79-16.05 112.69-15.1 114.09-14.43 115.49-13.75 117.07-13.1 118.64-12.45 120.04-11.6 121.44-10.75 122.34-9.47 123.24-8.2 123.24-6.2L123.24-6.2Q123.24-3.95 122.04-2.48 120.84-1 118.87-0.25 116.89 0.5 114.64 0.5L114.64 0.5Q112.79 0.5 110.77-0.03 108.74-0.55 107.29-1.65L107.29-1.65Q107.29-3.25 107.44-4.78 107.59-6.3 107.79-7.55L107.79-7.55 108.39-7.45Q108.39-5.1 109.29-3.68 110.19-2.25 111.54-1.6 112.89-0.95 114.29-0.95ZM135.14-36.8L135.14-36.8 135.14-15.2Q135.44-17.3 136.37-19.38 137.29-21.45 138.97-22.8 140.64-24.15 143.09-24.15L143.09-24.15Q146.94-24.15 148.84-22.08 150.74-20 150.74-16.15L150.74-16.15 150.74-8.25Q150.74-4.85 150.99-3.2 151.24-1.55 152.14-1.07 153.04-0.6 154.99-0.6L154.99-0.6 155.09 0 142.94 0 143.04-0.6Q144.59-0.6 145.44-0.85 146.29-1.1 146.67-1.9 147.04-2.7 147.14-4.33 147.24-5.95 147.24-8.7L147.24-8.7 147.24-15.65Q147.24-18.9 146.24-20.75 145.24-22.6 142.49-22.6L142.49-22.6Q140.74-22.6 139.47-21.55 138.19-20.5 137.37-18.82 136.54-17.15 136.04-15.2 135.54-13.25 135.34-11.43 135.14-9.6 135.14-8.25L135.14-8.25Q135.14-5.65 135.24-4.13 135.34-2.6 135.74-1.85 136.14-1.1 136.99-0.85 137.84-0.6 139.34-0.6L139.34-0.6 139.44 0 127.24 0 127.34-0.6Q128.89-0.6 129.77-0.85 130.64-1.1 131.04-1.88 131.44-2.65 131.54-4.2 131.64-5.75 131.64-8.35L131.64-8.35 131.64-25Q131.64-28.65 131.52-30.8 131.39-32.95 130.89-34 130.39-35.05 129.42-35.38 128.44-35.7 126.69-35.7L126.69-35.7 126.59-36.25Q126.59-36.25 127.87-36.4 129.14-36.55 131.09-36.68 133.04-36.8 135.14-36.8ZM169.69-24.15L169.69-24.15Q173.29-24.15 175.86-22.48 178.44-20.8 179.81-18 181.19-15.2 181.19-11.8L181.19-11.8Q181.19-8.45 179.86-5.65 178.54-2.85 176.04-1.18 173.54 0.5 169.99 0.5L169.99 0.5Q166.49 0.5 163.91-1.18 161.34-2.85 159.96-5.65 158.59-8.45 158.59-11.8L158.59-11.8Q158.59-15.2 159.89-18 161.19-20.8 163.69-22.48 166.19-24.15 169.69-24.15ZM169.99-0.5L169.99-0.5Q172.54-0.5 174.19-2.02 175.84-3.55 176.61-6.13 177.39-8.7 177.39-11.8L177.39-11.8Q177.39-14.95 176.54-17.53 175.69-20.1 173.99-21.63 172.29-23.15 169.74-23.15L169.74-23.15Q167.24-23.15 165.59-21.63 163.94-20.1 163.16-17.53 162.39-14.95 162.39-11.8L162.39-11.8Q162.39-8.7 163.24-6.13 164.09-3.55 165.79-2.02 167.49-0.5 169.99-0.5ZM200.59-24.4L200.59-24.4Q201.74-24.4 202.74-23.88 203.74-23.35 203.74-22.35L203.74-22.35Q203.74-21.35 203.09-20.83 202.44-20.3 201.74-20.3L201.74-20.3Q200.99-20.3 200.46-20.63 199.94-20.95 199.31-21.28 198.69-21.6 197.54-21.6L197.54-21.6Q196.19-21.6 195.19-19.88 194.19-18.15 193.66-15.4 193.14-12.65 193.14-9.65L193.14-9.65Q193.14-6.5 193.26-4.65 193.39-2.8 193.79-1.95 194.19-1.1 195.04-0.85 195.89-0.6 197.39-0.6L197.39-0.6 197.49 0 185.34 0 185.44-0.6Q186.89-0.6 187.74-0.85 188.59-1.1 188.99-1.95 189.39-2.8 189.51-4.65 189.64-6.5 189.64-9.65L189.64-9.65 189.64-12.55Q189.64-16.2 189.51-18.32 189.39-20.45 188.91-21.45 188.44-22.45 187.46-22.73 186.49-23 184.79-23L184.79-23 184.69-23.55Q184.69-23.55 185.94-23.7 187.19-23.85 189.11-24 191.04-24.15 193.14-24.15L193.14-24.15 193.14-16.8Q193.69-20.35 195.61-22.38 197.54-24.4 200.59-24.4ZM211.43-29.7L212.53-29.8 212.53-23.65 218.68-23.65 218.68-22.55 212.53-22.55 212.53-3.5Q212.53-2.4 213.03-1.8 213.53-1.2 214.33-1.2L214.33-1.2Q215.33-1.2 216.33-1.48 217.33-1.75 218.58-2.25L218.58-2.25 218.68-1.7Q217.28-0.8 215.73-0.15 214.18 0.5 212.48 0.5L212.48 0.5Q210.83 0.5 209.93-0.3 209.03-1.1 209.03-3.3L209.03-3.3 209.03-22.55 206.03-22.55 206.03-23.65Q208.03-23.65 209.08-24.48 210.13-25.3 210.63-26.7 211.13-28.1 211.43-29.7L211.43-29.7ZM229.18-0.95L229.18-0.95Q231.63-0.95 233.13-2.05 234.63-3.15 234.63-5.1L234.63-5.1Q234.63-6.75 233.73-7.75 232.83-8.75 231.43-9.45 230.03-10.15 228.46-10.8 226.88-11.45 225.48-12.28 224.08-13.1 223.18-14.43 222.28-15.75 222.28-17.8L222.28-17.8Q222.28-19.85 223.41-21.28 224.53-22.7 226.31-23.43 228.08-24.15 229.98-24.15L229.98-24.15Q231.78-24.15 233.76-23.75 235.73-23.35 236.78-22.75L236.78-22.75Q236.78-21.15 236.58-19.4 236.38-17.65 236.18-16.35L236.18-16.35 235.58-16.5Q235.58-18.85 234.83-20.23 234.08-21.6 232.86-22.2 231.63-22.8 230.23-22.8L230.23-22.8Q228.48-22.8 227.13-21.75 225.78-20.7 225.78-18.5L225.78-18.5Q225.78-17 226.68-16.05 227.58-15.1 228.98-14.43 230.38-13.75 231.96-13.1 233.53-12.45 234.93-11.6 236.33-10.75 237.23-9.47 238.13-8.2 238.13-6.2L238.13-6.2Q238.13-3.95 236.93-2.48 235.73-1 233.76-0.25 231.78 0.5 229.53 0.5L229.53 0.5Q227.68 0.5 225.66-0.03 223.63-0.55 222.18-1.65L222.18-1.65Q222.18-3.25 222.33-4.78 222.48-6.3 222.68-7.55L222.68-7.55 223.28-7.45Q223.28-5.1 224.18-3.68 225.08-2.25 226.43-1.6 227.78-0.95 229.18-0.95Z" opacity="1" transform="matrix(1,0,0,1,0,0)" fill="black" class="wordmark-text-0" id="SvgjsPath2186" stroke-width="5" stroke="black" stroke-linejoin="round"></path></svg></g></svg></g></svg></g></svg></g><g></g></svg></g></svg></g></svg></g></mask><g mask="url(#80442faf-278e-4fba-a50e-81c7341bd826)"><g><path d="M242.817 3.857l-0.701-3.857h86.958l-0.701 3.857c-7.948 0-14.446 0.748-19.496 2.244-5.002 1.543-8.836 4.769-11.501 9.678-2.712 4.909-4.582 12.389-5.61 22.441-1.075 10.052-1.613 23.61-1.613 40.674v0 168.306h-10.87l-165.15-208.63v126.931c0 17.064 0.514 30.669 1.543 40.815 1.075 10.192 2.969 17.789 5.68 22.791 2.665 5.049 6.452 8.322 11.361 9.818 4.909 1.543 11.337 2.314 19.285 2.314v0l0.701 4.208h-86.257l0.701-4.208c7.948 0 14.446-0.771 19.496-2.314 5.002-1.496 8.859-4.769 11.571-9.818 2.665-5.002 4.535-12.6 5.61-22.791 1.029-10.145 1.543-23.75 1.543-40.815v0-86.607c0-17.064-0.514-30.622-1.543-40.674-1.075-10.052-2.945-17.532-5.61-22.441-2.712-4.909-6.569-8.135-11.571-9.678-5.049-1.496-11.548-2.244-19.496-2.244v0l-0.701-3.857h47.687l167.254 208.63v-129.736c0-17.064-0.514-30.622-1.543-40.674-1.075-10.052-3.015-17.532-5.82-22.441-2.805-4.909-6.709-8.135-11.712-9.678-5.049-1.496-11.548-2.244-19.495-2.244z" fill="#ffffff" fill-rule="nonzero" stroke="none" stroke-width="1" stroke-linecap="butt" stroke-linejoin="miter" stroke-miterlimit="10" stroke-dasharray="" stroke-dashoffset="0" font-family="none" font-weight="none" font-size="none" text-anchor="none" style="mix-blend-mode: normal" data-fill-palette-color="tertiary"></path></g></g><g transform="matrix(1,0,0,1,0,88.91820895522388)"><svg viewBox="0 0 395.52 69.36358208955224" height="69.36358208955224" width="395.52"><g><svg viewBox="0 0 395.52 69.36358208955224" height="69.36358208955224" width="395.52"><g><svg viewBox="0 0 395.52 69.36358208955224" height="69.36358208955224" width="395.52"><g><svg viewBox="0 0 395.52 69.36358208955224" height="69.36358208955224" width="395.52"><g id="textblocktransform"><svg viewBox="0 0 395.52 69.36358208955224" height="69.36358208955224" width="395.52" id="textblock"><g><svg viewBox="0 0 395.52 69.36358208955224" height="69.36358208955224" width="395.52"><g transform="matrix(1,0,0,1,0,0)"><svg width="395.52" viewBox="-1.05 -39.8 242.18 43.3" height="69.36358208955224" data-palette-color="#ffffff"><path d="M27.1-34.45L27-35 39.4-35 39.3-34.45Q37.6-34.45 36.52-34.13 35.45-33.8 34.88-32.75 34.3-31.7 34.08-29.55 33.85-27.4 33.85-23.75L33.85-23.75 33.85 0.25 32.3 0.25 8.75-29.5 8.75-11.4Q8.75-7.75 8.97-5.58 9.2-3.4 9.78-2.33 10.35-1.25 11.4-0.93 12.45-0.6 14.15-0.6L14.15-0.6 14.25 0 1.95 0 2.05-0.6Q3.75-0.6 4.83-0.93 5.9-1.25 6.48-2.33 7.05-3.4 7.28-5.58 7.5-7.75 7.5-11.4L7.5-11.4 7.5-23.75Q7.5-27.4 7.28-29.55 7.05-31.7 6.48-32.75 5.9-33.8 4.83-34.13 3.75-34.45 2.05-34.45L2.05-34.45 1.95-35 8.75-35 32.6-5.25 32.6-23.75Q32.6-27.4 32.38-29.55 32.15-31.7 31.55-32.75 30.95-33.8 29.88-34.13 28.8-34.45 27.1-34.45L27.1-34.45ZM62.3-12.65L62.3-12.65 45.9-12.65 45.9-11.8Q45.9-8.05 47-5.65 48.1-3.25 49.9-2.1 51.7-0.95 53.75-0.95L53.75-0.95Q55.85-0.95 57.82-1.88 59.8-2.8 60.95-4.95L60.95-4.95 61.7-4.55Q60.3-1.8 57.97-0.65 55.65 0.5 53 0.5L53 0.5Q50.2 0.5 47.7-0.88 45.2-2.25 43.65-5 42.1-7.75 42.1-11.8L42.1-11.8Q42.1-15.2 43.35-18 44.6-20.8 46.92-22.48 49.25-24.15 52.55-24.15L52.55-24.15Q55.8-24.15 57.95-22.6 60.1-21.05 61.2-18.45 62.3-15.85 62.3-12.65ZM52.6-23.15L52.6-23.15Q49.55-23.15 47.95-20.55 46.35-17.95 46-14.1L46-14.1 58.45-14.1Q58.3-18.2 56.95-20.68 55.6-23.15 52.6-23.15ZM95.5-23.05L95.5-23.05 95.4-23.65 104.8-23.65 104.7-23.05Q103.65-23.05 103-22.8 102.35-22.55 101.8-21.65 101.25-20.75 100.55-18.82 99.85-16.9 98.75-13.55L98.75-13.55 94.25 0.15 91.3 0.15 84.75-17.9 79.25 0.15 76.3 0.15 69.8-16.45Q68.6-19.5 67.6-20.9 66.6-22.3 65.65-22.68 64.7-23.05 63.65-23.05L63.65-23.05 63.55-23.65 75.95-23.65 75.85-23.05Q74.05-23.05 73.4-22.48 72.75-21.9 72.75-20.8L72.75-20.8Q72.75-19.45 73.4-17.35 74.05-15.25 75.1-12.6L75.1-12.6 78.95-2.9 84.1-19.75Q83.9-20.4 83.42-21.15 82.95-21.9 82.12-22.48 81.3-23.05 80-23.05L80-23.05 79.9-23.65 91.45-23.65 91.35-23.05Q89.55-23.05 88.9-22.48 88.25-21.9 88.25-20.8L88.25-20.8Q88.25-19.45 88.95-17.35 89.65-15.25 90.6-12.6L90.6-12.6 93.95-2.9 97.85-14.9Q98.55-17 98.77-18.28 99-19.55 99-20.35L99-20.35Q99-21.55 98.25-22.3 97.5-23.05 95.5-23.05ZM114.29-0.95L114.29-0.95Q116.74-0.95 118.24-2.05 119.74-3.15 119.74-5.1L119.74-5.1Q119.74-6.75 118.84-7.75 117.94-8.75 116.54-9.45 115.14-10.15 113.57-10.8 111.99-11.45 110.59-12.28 109.19-13.1 108.29-14.43 107.39-15.75 107.39-17.8L107.39-17.8Q107.39-19.85 108.52-21.28 109.64-22.7 111.42-23.43 113.19-24.15 115.09-24.15L115.09-24.15Q116.89-24.15 118.87-23.75 120.84-23.35 121.89-22.75L121.89-22.75Q121.89-21.15 121.69-19.4 121.49-17.65 121.29-16.35L121.29-16.35 120.69-16.5Q120.69-18.85 119.94-20.23 119.19-21.6 117.97-22.2 116.74-22.8 115.34-22.8L115.34-22.8Q113.59-22.8 112.24-21.75 110.89-20.7 110.89-18.5L110.89-18.5Q110.89-17 111.79-16.05 112.69-15.1 114.09-14.43 115.49-13.75 117.07-13.1 118.64-12.45 120.04-11.6 121.44-10.75 122.34-9.47 123.24-8.2 123.24-6.2L123.24-6.2Q123.24-3.95 122.04-2.48 120.84-1 118.87-0.25 116.89 0.5 114.64 0.5L114.64 0.5Q112.79 0.5 110.77-0.03 108.74-0.55 107.29-1.65L107.29-1.65Q107.29-3.25 107.44-4.78 107.59-6.3 107.79-7.55L107.79-7.55 108.39-7.45Q108.39-5.1 109.29-3.68 110.19-2.25 111.54-1.6 112.89-0.95 114.29-0.95ZM135.14-36.8L135.14-36.8 135.14-15.2Q135.44-17.3 136.37-19.38 137.29-21.45 138.97-22.8 140.64-24.15 143.09-24.15L143.09-24.15Q146.94-24.15 148.84-22.08 150.74-20 150.74-16.15L150.74-16.15 150.74-8.25Q150.74-4.85 150.99-3.2 151.24-1.55 152.14-1.07 153.04-0.6 154.99-0.6L154.99-0.6 155.09 0 142.94 0 143.04-0.6Q144.59-0.6 145.44-0.85 146.29-1.1 146.67-1.9 147.04-2.7 147.14-4.33 147.24-5.95 147.24-8.7L147.24-8.7 147.24-15.65Q147.24-18.9 146.24-20.75 145.24-22.6 142.49-22.6L142.49-22.6Q140.74-22.6 139.47-21.55 138.19-20.5 137.37-18.82 136.54-17.15 136.04-15.2 135.54-13.25 135.34-11.43 135.14-9.6 135.14-8.25L135.14-8.25Q135.14-5.65 135.24-4.13 135.34-2.6 135.74-1.85 136.14-1.1 136.99-0.85 137.84-0.6 139.34-0.6L139.34-0.6 139.44 0 127.24 0 127.34-0.6Q128.89-0.6 129.77-0.85 130.64-1.1 131.04-1.88 131.44-2.65 131.54-4.2 131.64-5.75 131.64-8.35L131.64-8.35 131.64-25Q131.64-28.65 131.52-30.8 131.39-32.95 130.89-34 130.39-35.05 129.42-35.38 128.44-35.7 126.69-35.7L126.69-35.7 126.59-36.25Q126.59-36.25 127.87-36.4 129.14-36.55 131.09-36.68 133.04-36.8 135.14-36.8ZM169.69-24.15L169.69-24.15Q173.29-24.15 175.86-22.48 178.44-20.8 179.81-18 181.19-15.2 181.19-11.8L181.19-11.8Q181.19-8.45 179.86-5.65 178.54-2.85 176.04-1.18 173.54 0.5 169.99 0.5L169.99 0.5Q166.49 0.5 163.91-1.18 161.34-2.85 159.96-5.65 158.59-8.45 158.59-11.8L158.59-11.8Q158.59-15.2 159.89-18 161.19-20.8 163.69-22.48 166.19-24.15 169.69-24.15ZM169.99-0.5L169.99-0.5Q172.54-0.5 174.19-2.02 175.84-3.55 176.61-6.13 177.39-8.7 177.39-11.8L177.39-11.8Q177.39-14.95 176.54-17.53 175.69-20.1 173.99-21.63 172.29-23.15 169.74-23.15L169.74-23.15Q167.24-23.15 165.59-21.63 163.94-20.1 163.16-17.53 162.39-14.95 162.39-11.8L162.39-11.8Q162.39-8.7 163.24-6.13 164.09-3.55 165.79-2.02 167.49-0.5 169.99-0.5ZM200.59-24.4L200.59-24.4Q201.74-24.4 202.74-23.88 203.74-23.35 203.74-22.35L203.74-22.35Q203.74-21.35 203.09-20.83 202.44-20.3 201.74-20.3L201.74-20.3Q200.99-20.3 200.46-20.63 199.94-20.95 199.31-21.28 198.69-21.6 197.54-21.6L197.54-21.6Q196.19-21.6 195.19-19.88 194.19-18.15 193.66-15.4 193.14-12.65 193.14-9.65L193.14-9.65Q193.14-6.5 193.26-4.65 193.39-2.8 193.79-1.95 194.19-1.1 195.04-0.85 195.89-0.6 197.39-0.6L197.39-0.6 197.49 0 185.34 0 185.44-0.6Q186.89-0.6 187.74-0.85 188.59-1.1 188.99-1.95 189.39-2.8 189.51-4.65 189.64-6.5 189.64-9.65L189.64-9.65 189.64-12.55Q189.64-16.2 189.51-18.32 189.39-20.45 188.91-21.45 188.44-22.45 187.46-22.73 186.49-23 184.79-23L184.79-23 184.69-23.55Q184.69-23.55 185.94-23.7 187.19-23.85 189.11-24 191.04-24.15 193.14-24.15L193.14-24.15 193.14-16.8Q193.69-20.35 195.61-22.38 197.54-24.4 200.59-24.4ZM211.43-29.7L212.53-29.8 212.53-23.65 218.68-23.65 218.68-22.55 212.53-22.55 212.53-3.5Q212.53-2.4 213.03-1.8 213.53-1.2 214.33-1.2L214.33-1.2Q215.33-1.2 216.33-1.48 217.33-1.75 218.58-2.25L218.58-2.25 218.68-1.7Q217.28-0.8 215.73-0.15 214.18 0.5 212.48 0.5L212.48 0.5Q210.83 0.5 209.93-0.3 209.03-1.1 209.03-3.3L209.03-3.3 209.03-22.55 206.03-22.55 206.03-23.65Q208.03-23.65 209.08-24.48 210.13-25.3 210.63-26.7 211.13-28.1 211.43-29.7L211.43-29.7ZM229.18-0.95L229.18-0.95Q231.63-0.95 233.13-2.05 234.63-3.15 234.63-5.1L234.63-5.1Q234.63-6.75 233.73-7.75 232.83-8.75 231.43-9.45 230.03-10.15 228.46-10.8 226.88-11.45 225.48-12.28 224.08-13.1 223.18-14.43 222.28-15.75 222.28-17.8L222.28-17.8Q222.28-19.85 223.41-21.28 224.53-22.7 226.31-23.43 228.08-24.15 229.98-24.15L229.98-24.15Q231.78-24.15 233.76-23.75 235.73-23.35 236.78-22.75L236.78-22.75Q236.78-21.15 236.58-19.4 236.38-17.65 236.18-16.35L236.18-16.35 235.58-16.5Q235.58-18.85 234.83-20.23 234.08-21.6 232.86-22.2 231.63-22.8 230.23-22.8L230.23-22.8Q228.48-22.8 227.13-21.75 225.78-20.7 225.78-18.5L225.78-18.5Q225.78-17 226.68-16.05 227.58-15.1 228.98-14.43 230.38-13.75 231.96-13.1 233.53-12.45 234.93-11.6 236.33-10.75 237.23-9.47 238.13-8.2 238.13-6.2L238.13-6.2Q238.13-3.95 236.93-2.48 235.73-1 233.76-0.25 231.78 0.5 229.53 0.5L229.53 0.5Q227.68 0.5 225.66-0.03 223.63-0.55 222.18-1.65L222.18-1.65Q222.18-3.25 222.33-4.78 222.48-6.3 222.68-7.55L222.68-7.55 223.28-7.45Q223.28-5.1 224.18-3.68 225.08-2.25 226.43-1.6 227.78-0.95 229.18-0.95Z" opacity="1" transform="matrix(1,0,0,1,0,0)" fill="#ffffff" class="wordmark-text-0" data-fill-palette-color="primary" id="text-0"></path></svg></g></svg></g></svg></g></svg></g><g></g></svg></g></svg></g></svg></g></svg></g><defs></defs></svg><rect width="395.52" height="247.2" fill="none" stroke="none" visibility="hidden"></rect></g></svg></g></svg>